<svg xmlns="http://www.w3.org/2000/svg" viewBox="0 0 60 60" xml:space="preserve">
  <path d="M43.887 43.264h4.805v5.093h-4.805zM11.333 43.264h4.8v5.093h-4.8zM11.333 11.635h4.8v5.096h-4.8zM43.887 11.635h4.805v5.096h-4.805z"/>
  <path d="M50.554 5.008H9.448A4.443 4.443 0 0 0 5.007 9.45v41.106a4.443 4.443 0 0 0 4.441 4.437h41.106a4.442 4.442 0 0 0 4.439-4.437V9.45a4.442 4.442 0 0 0-4.439-4.442zM33.16 9.896h5.629v5.82H33.16v-5.82zm-6.989 4.285h5.625v3.832h4.181v6.281H29.91v-4.29h-3.738v-5.822zM7.855 8.155h11.757v10.313h6.542v8.576h-8.281v-6.837H7.855V8.155zM17.873 27.09v4.286H9.594V27.09h8.279zm1.739 24.745H7.855v-12.05h11.757v12.05zm2.475-16.243H17.95v-4.29h4.137v4.29zm5.79 14.503h-5.613v-5.81h5.613v5.81zm0-8.69h-5.613v-5.812h5.613v5.812zm1.845-12.247H35.976V24.9h4.139v4.287h-2.554v4.257h-7.839V29.16zM52.17 51.835H40.408v-1.739H38.05V45.81h2.358v-5.163h-4.913v4.932H29.87v-5.822h3.554v-3.4H40.858v3.43H52.17v12.049zm0-31.628h-1.739v13.236h-3.955v2.1h-4.139v-4.29h2.027V20.207h-3.957V8.155H52.17v12.053z"/>
</svg>
